<svg xmlns="http://www.w3.org/2000/svg" version="1.1" xmlns:xlink="http://www.w3.org/1999/xlink" xmlns:svgjs="http://svgjs.dev/svgjs" viewBox="0 0 4.510304123926401 4.1181245458335365"><g transform="matrix(0.8513516851632692,0,0,0.8513516851632692,2.2572094273392915,3.199059989306245)"><rect width="5.229339846406396" height="5.229339846406396" x="-2.617086510157738" y="-3.953714334879969" fill="#ffffff"></rect><g transform="matrix(1,0,0,1,0,0)"><path d=" M -1.2535395356144592 -1.4494281220066512 L -1.8633770013562674 -1.8130189158637138 L -1.70667449020097 -2.075850274338352 Q -1.6800453052987625 -2.120514426758879 -1.6394754719039897 -2.147553077211895 Q -1.5989056385092169 -2.1745917276649105 -1.5520265745130757 -2.1838978202308432 Q -1.5051475105169345 -2.1932039127967755 -1.4583930212420921 -2.1857027307133547 Q -1.4116385319672498 -2.178201548629933 -1.3729868616033323 -2.1551570616953306 Q -1.318874523093848 -2.122894779986887 -1.285881608075879 -2.0688788790074804 Q -1.25288869305791 -2.0148629780280736 -1.249282054527856 -1.95158982291065 Q -1.2456754159978018 -1.8883166677932266 -1.2815223956738504 -1.8281918472271328 L -1.3409259619941591 -1.7285564302890344 L -1.1536800922311814 -1.6169186935836266 L -1.2535395356144592 -1.4494281220066512 M -1.4869433833689583 -1.8156133809308663 L -1.4341971132742013 -1.904082759763833 Q -1.4280519167583072 -1.9143898718608776 -1.4284313020086805 -1.9274227559174402 Q -1.4288106872590536 -1.9404556399740025 -1.4395716815740998 -1.9556032800988385 Q -1.450332675889146 -1.9707509202236746 -1.4743826041155834 -1.985089712094094 Q -1.5001503843581951 -2.000452703383829 -1.5186755110237231 -2.0016014775244435 Q -1.537200637689251 -2.0027502516650575 -1.5491849031125398 -1.9953423246767454 Q -1.5611691685358287 -1.9879343976884332 -1.5673143650517227 -1.9776272855913886 L -1.6175001365981905 -1.8934525367988573 L -1.4869433833689583 -1.8156133809308663 M -0.901190598820335 -1.971060294171613 L -1.2867342331544138 -2.5672616913726514 L -1.1229887789935653 -2.6731504360137013 L -0.8297584092183504 -2.219701486029813 L -0.5593684797835133 -2.394553669488367 L -0.46705521522464943 -2.251801222271217 L -0.901190598820335 -1.971060294171613 M -0.09051823034595169 -2.2946264396267795 Q -0.17531543282463724 -2.2887583520517003 -0.23810291286348476 -2.3124803323731515 Q -0.30089039290233227 -2.336202312694603 -0.34268131745066494 -2.3824275073983094 Q -0.3844722419989976 -2.4286527021020157 -0.406813103241749 -2.4907585465848996 Q -0.42915396448450044 -2.552864391067783 -0.4339865071933892 -2.6226973813443477 L -0.45918476560402355 -2.9868265449292917 L -0.2646500069764507 -3.0002886281897676 L -0.2394517485658164 -2.6361594646048236 Q -0.23703547721137203 -2.6012429694665413 -0.22784301580250926 -2.569802571039572 Q -0.21865055439364656 -2.5383621726126027 -0.20196043408120812 -2.5144573638085914 Q -0.18527031376876973 -2.49055255500458 -0.16082535461479608 -2.477709503499562 Q -0.13638039546082242 -2.4648664519945434 -0.1024615144693482 -2.467213687024575 Q -0.06754501933106588 -2.469629958379019 -0.04460330651165639 -2.485752235293641 Q -0.02166159369224696 -2.501874512208263 -0.008956614836053756 -2.5283146996558523 Q 0.0037483640201394497 -2.5547548871034422 0.008522500666589605 -2.5871617940721894 Q 0.01329663731303976 -2.619568701040936 0.010949402283008114 -2.6534875820324104 L -0.01424885612762622 -3.0176167456173544 L 0.18028590249994658 -3.0310788288778303 L 0.20548416091058086 -2.6669496652928864 Q 0.21059284891712038 -2.5931262184290893 0.19555769781677568 -2.5279327047073257 Q 0.1805225467164311 -2.4627391909855616 0.14492933856272594 -2.4121612952866793 Q 0.10933613040902079 -2.361583399587797 0.05080993712406934 -2.330969927070415 Q -0.007716256160882229 -2.3003564545530333 -0.09051823034595169 -2.2946264396267795 M 1.0827117523762562 -2.525055874459262 L 0.8990854576195243 -2.613923100554791 L 0.6638486826607708 -2.127853496786972 L 0.4883235479668361 -2.2128001099665218 L 0.7235603229255897 -2.698869713734341 L 0.5390338992729916 -2.788172563487201 L 0.613089921019266 -2.9411944757844775 L 1.1567677741225304 -2.678077786756538 L 1.0827117523762562 -2.525055874459262 M 1.08144033142671 -1.7224675110873295 Q 1.0362517430897729 -1.7896909555402496 1.0247439434055283 -1.8614810700855497 Q 1.013236143721284 -1.9332711846308497 1.0294774948733934 -2.0014233563699357 Q 1.045718846025503 -2.069575528109022 1.0850225887986071 -2.126721969853243 Q 1.1243263315717114 -2.183868411597464 1.1815907472167912 -2.222362394254855 Q 1.2405150009965114 -2.2619721445255037 1.3086926840839703 -2.27526889333211 Q 1.3768703671714295 -2.288565642138717 1.4458386446925888 -2.276487699608454 Q 1.5148069222137484 -2.2644097570781914 1.5759738483068473 -2.225398769493648 Q 1.637140774399946 -2.186387781909105 1.6812135951236256 -2.120824175590825 Q 1.7264021834605627 -2.0536007311379048 1.737909983144807 -1.9818106165926048 Q 1.7494177828290516 -1.9100205020473047 1.7324825302399676 -1.8420043479385644 Q 1.7155472776508838 -1.7739881938298239 1.6762435348777798 -1.7168417520856027 Q 1.6369397921046756 -1.6596953103413816 1.5805052955269154 -1.6217592114906194 Q 1.5224109608145153 -1.5827073450265996 1.4545122196303708 -1.5689956366863331 Q 1.386613478446226 -1.5552839283460664 1.3176452009250665 -1.5673618708763293 Q 1.2486769234039072 -1.5794398134065921 1.1873739796804628 -1.617756899554161 Q 1.1260710359570183 -1.6560739857017295 1.08144033142671 -1.7224675110873295 M 1.2903919027946644 -2.056922651312237 Q 1.2605148163711446 -2.0368388342735986 1.238291365682213 -2.0098505360783316 Q 1.2160679149932816 -1.9828622378830651 1.2052327358418786 -1.9514799356610006 Q 1.1943975566904759 -1.920097633438936 1.1985492672491957 -1.8861379028829286 Q 1.2027009778079158 -1.8521781723269215 1.2261320976863277 -1.8173215714994815 Q 1.2495632175647398 -1.7824649706720415 1.2801363206473542 -1.765663620491183 Q 1.3107094237299686 -1.7488622703103247 1.3444109323105313 -1.748020653179878 Q 1.378112440891094 -1.7471790360494317 1.4112146258092881 -1.7579839124319583 Q 1.4443168107274822 -1.768788788814485 1.4733639780836822 -1.7883147220464948 Q 1.5032410645072023 -1.8083985390851336 1.5250495556624737 -1.8351078953770859 Q 1.546858046817745 -1.861817251669038 1.557693225969148 -1.8931995538911028 Q 1.568528405120551 -1.9245818561131673 1.5636827931248565 -1.9586776042995202 Q 1.558837181129162 -1.992773352485873 1.535963945057379 -2.026800034245993 Q 1.5125328251789671 -2.061656635073433 1.482238663999667 -2.0780430257206315 Q 1.4519445028203668 -2.09442941636783 1.4187939714038098 -2.096243876838565 Q 1.3856434399872528 -2.0980583373093005 1.3525412550690585 -2.0872534609267737 Q 1.3194390701508645 -2.0764485845442473 1.2903919027946644 -2.056922651312237" fill="#102036" fill-rule="nonzero"></path></g><g transform="matrix(1,0,0,1,0,0)"><path d=" M -1.0741214599609377 0.004999999999999949 L -1.0411214599609375 0.004999999999999949 L -0.9911214599609376 0.13099999999999992 L -0.9406214599609376 0.004999999999999949 L -0.9071214599609376 0.004999999999999949 L -0.9691214599609376 0.15649999999999992 L -0.9011214599609376 0.31699999999999995 L -0.7726214599609376 0.0024999999999999467 L -0.7346214599609376 0.0024999999999999467 L -0.8851214599609376 0.35749999999999993 L -0.9161214599609375 0.35749999999999993 L -0.9906214599609375 0.1819999999999999 L -1.0656214599609375 0.35749999999999993 L -1.0961214599609377 0.35749999999999993 L -1.2461214599609376 0.0024999999999999467 L -1.2086214599609375 0.0024999999999999467 L -1.0796214599609375 0.31699999999999995 L -1.0121214599609376 0.15649999999999992 L -1.0741214599609377 0.004999999999999949 M -0.44536120605468754 0.3264999999999999 L -0.44536120605468754 0.35749999999999993 L -0.6838612060546876 0.35749999999999993 L -0.6838612060546876 0.0024999999999999467 L -0.44986120605468755 0.0024999999999999467 L -0.44986120605468755 0.03349999999999992 L -0.6488612060546876 0.03349999999999992 L -0.6488612060546876 0.16149999999999992 L -0.47536120605468757 0.16149999999999992 L -0.47536120605468757 0.19099999999999992 L -0.6488612060546876 0.19099999999999992 L -0.6488612060546876 0.3264999999999999 L -0.44536120605468754 0.3264999999999999 M -0.1116068115234376 0.2659999999999999 Q -0.1116068115234376 0.2924999999999999 -0.1251068115234376 0.3132499999999999 Q -0.13860681152343757 0.3339999999999999 -0.16135681152343762 0.34574999999999995 Q -0.18410681152343758 0.35749999999999993 -0.2111068115234376 0.35749999999999993 L -0.3786068115234376 0.35749999999999993 L -0.3786068115234376 0.0024999999999999467 L -0.2076068115234376 0.0024999999999999467 Q -0.1826068115234376 0.0024999999999999467 -0.16435681152343762 0.01574999999999993 Q -0.14610681152343757 0.028999999999999915 -0.1363568115234376 0.049749999999999905 Q -0.1266068115234376 0.0704999999999999 -0.1266068115234376 0.09299999999999992 Q -0.1266068115234376 0.11949999999999991 -0.14010681152343757 0.14199999999999993 Q -0.15360681152343758 0.16449999999999992 -0.1776068115234376 0.17549999999999993 Q -0.14710681152343758 0.18449999999999991 -0.1293568115234376 0.20899999999999994 Q -0.1116068115234376 0.23349999999999993 -0.1116068115234376 0.2659999999999999 M -0.14660681152343757 0.2599999999999999 Q -0.14660681152343757 0.24199999999999994 -0.15460681152343758 0.22674999999999992 Q -0.1626068115234376 0.21149999999999994 -0.1763568115234376 0.20199999999999993 Q -0.19010681152343759 0.19249999999999992 -0.2076068115234376 0.19249999999999992 L -0.3436068115234376 0.19249999999999992 L -0.3436068115234376 0.32699999999999996 L -0.2111068115234376 0.32699999999999996 Q -0.1931068115234376 0.32699999999999996 -0.1786068115234376 0.31749999999999995 Q -0.1641068115234376 0.30799999999999994 -0.1553568115234376 0.29274999999999995 Q -0.14660681152343757 0.2774999999999999 -0.14660681152343757 0.2599999999999999 M -0.3436068115234376 0.03299999999999992 L -0.3436068115234376 0.16399999999999992 L -0.22160681152343759 0.16399999999999992 Q -0.2041068115234376 0.16399999999999992 -0.19060681152343759 0.15474999999999992 Q -0.1771068115234376 0.14549999999999993 -0.1691068115234376 0.13049999999999992 Q -0.1611068115234376 0.11549999999999994 -0.1611068115234376 0.09849999999999992 Q -0.1611068115234376 0.0804999999999999 -0.1686068115234376 0.06574999999999992 Q -0.1761068115234376 0.050999999999999934 -0.18910681152343758 0.041999999999999926 Q -0.2021068115234376 0.03299999999999992 -0.21860681152343758 0.03299999999999992 L -0.3436068115234376 0.03299999999999992 M 0.16265100097656238 0.06899999999999995 Q 0.15515100097656237 0.06049999999999994 0.1451510009765624 0.05374999999999991 Q 0.13515100097656238 0.04699999999999993 0.12265100097656237 0.041999999999999926 Q 0.11015100097656239 0.03699999999999992 0.09590100097656237 0.03399999999999992 Q 0.08165100097656239 0.030999999999999917 0.06565100097656237 0.030999999999999917 Q 0.019151000976562374 0.030999999999999917 -0.0025989990234376176 0.048749999999999905 Q -0.024348999023437623 0.06649999999999995 -0.024348999023437623 0.09699999999999992 Q -0.024348999023437623 0.11799999999999991 -0.014098999023437628 0.12999999999999992 Q -0.0038489990234376187 0.14199999999999993 0.018151000976562373 0.1494999999999999 Q 0.04015100097656238 0.15699999999999992 0.07415100097656238 0.16499999999999992 Q 0.11215100097656239 0.17299999999999993 0.13965100097656238 0.1839999999999999 Q 0.16715100097656238 0.19499999999999992 0.1821510009765624 0.2137499999999999 Q 0.1971510009765624 0.23249999999999993 0.1971510009765624 0.26449999999999996 Q 0.1971510009765624 0.2889999999999999 0.1876510009765624 0.30699999999999994 Q 0.1781510009765624 0.32499999999999996 0.16115100097656238 0.3369999999999999 Q 0.1441510009765624 0.3489999999999999 0.12065100097656237 0.35474999999999995 Q 0.09715100097656237 0.36049999999999993 0.06915100097656238 0.36049999999999993 Q 0.04165100097656238 0.36049999999999993 0.01640100097656237 0.35474999999999995 Q -0.008848999023437623 0.3489999999999999 -0.03134899902343762 0.33774999999999994 Q -0.05384899902343762 0.3264999999999999 -0.07334899902343762 0.30899999999999994 L -0.05584899902343762 0.2804999999999999 Q -0.04634899902343762 0.2904999999999999 -0.033098999023437624 0.2992499999999999 Q -0.01984899902343762 0.30799999999999994 -0.0035989990234376185 0.31499999999999995 Q 0.012651000976562382 0.32199999999999995 0.03140100097656237 0.32574999999999993 Q 0.05015100097656239 0.3294999999999999 0.07015100097656238 0.3294999999999999 Q 0.11265100097656239 0.3294999999999999 0.13640100097656238 0.31399999999999995 Q 0.16015100097656237 0.29849999999999993 0.16015100097656237 0.2679999999999999 Q 0.16015100097656237 0.24599999999999994 0.1481510009765624 0.23274999999999993 Q 0.13615100097656238 0.21949999999999992 0.11215100097656239 0.21099999999999994 Q 0.08815100097656237 0.20249999999999993 0.05315100097656239 0.19449999999999992 Q 0.01615100097656237 0.18599999999999992 -0.009348999023437624 0.17549999999999993 Q -0.034848999023437625 0.16499999999999992 -0.04759899902343762 0.14774999999999994 Q -0.06034899902343763 0.13049999999999992 -0.06034899902343763 0.10199999999999992 Q -0.06034899902343763 0.06899999999999995 -0.04409899902343763 0.0462499999999999 Q -0.027848999023437626 0.02349999999999991 0.0006510009765623714 0.011749999999999927 Q 0.029151000976562383 -5.551115123125783e-17 0.06615100097656237 -5.551115123125783e-17 Q 0.08965100097656237 -5.551115123125783e-17 0.10990100097656239 0.004749999999999921 Q 0.13015100097656238 0.009499999999999897 0.1474010009765624 0.018499999999999905 Q 0.16465100097656238 0.027499999999999913 0.1796510009765624 0.040999999999999925 L 0.16265100097656238 0.06899999999999995 M 0.25939831542968733 0.35749999999999993 L 0.25939831542968733 0.0024999999999999467 L 0.29439831542968736 0.0024999999999999467 L 0.29439831542968736 0.35749999999999993 L 0.25939831542968733 0.35749999999999993 M 0.6361412353515623 0.03349999999999992 L 0.5096412353515624 0.03349999999999992 L 0.5096412353515624 0.35749999999999993 L 0.47464123535156233 0.35749999999999993 L 0.47464123535156233 0.03349999999999992 L 0.34814123535156233 0.03349999999999992 L 0.34814123535156233 0.0024999999999999467 L 0.6361412353515623 0.0024999999999999467 L 0.6361412353515623 0.03349999999999992 M 0.9283839111328124 0.3264999999999999 L 0.9283839111328124 0.35749999999999993 L 0.6898839111328123 0.35749999999999993 L 0.6898839111328123 0.0024999999999999467 L 0.9238839111328123 0.0024999999999999467 L 0.9238839111328123 0.03349999999999992 L 0.7248839111328124 0.03349999999999992 L 0.7248839111328124 0.16149999999999992 L 0.8983839111328124 0.16149999999999992 L 0.8983839111328124 0.19099999999999992 L 0.7248839111328124 0.19099999999999992 L 0.7248839111328124 0.3264999999999999 L 0.9283839111328124 0.3264999999999999 M 1.2006241455078124 0.06899999999999995 Q 1.1931241455078123 0.06049999999999994 1.1831241455078123 0.05374999999999991 Q 1.1731241455078123 0.04699999999999993 1.1606241455078123 0.041999999999999926 Q 1.1481241455078124 0.03699999999999992 1.1338741455078123 0.03399999999999992 Q 1.1196241455078124 0.030999999999999917 1.1036241455078124 0.030999999999999917 Q 1.0571241455078124 0.030999999999999917 1.0353741455078125 0.048749999999999905 Q 1.0136241455078123 0.06649999999999995 1.0136241455078123 0.09699999999999992 Q 1.0136241455078123 0.11799999999999991 1.0238741455078124 0.12999999999999992 Q 1.0341241455078123 0.14199999999999993 1.0561241455078123 0.1494999999999999 Q 1.0781241455078123 0.15699999999999992 1.1121241455078124 0.16499999999999992 Q 1.1501241455078124 0.17299999999999993 1.1776241455078125 0.1839999999999999 Q 1.2051241455078123 0.19499999999999992 1.2201241455078125 0.2137499999999999 Q 1.2351241455078124 0.23249999999999993 1.2351241455078124 0.26449999999999996 Q 1.2351241455078124 0.2889999999999999 1.2256241455078123 0.30699999999999994 Q 1.2161241455078124 0.32499999999999996 1.1991241455078123 0.3369999999999999 Q 1.1821241455078124 0.3489999999999999 1.1586241455078123 0.35474999999999995 Q 1.1351241455078123 0.36049999999999993 1.1071241455078125 0.36049999999999993 Q 1.0796241455078124 0.36049999999999993 1.0543741455078124 0.35474999999999995 Q 1.0291241455078124 0.3489999999999999 1.0066241455078124 0.33774999999999994 Q 0.9841241455078124 0.3264999999999999 0.9646241455078124 0.30899999999999994 L 0.9821241455078124 0.2804999999999999 Q 0.9916241455078124 0.2904999999999999 1.0048741455078123 0.2992499999999999 Q 1.0181241455078123 0.30799999999999994 1.0343741455078124 0.31499999999999995 Q 1.0506241455078125 0.32199999999999995 1.0693741455078123 0.32574999999999993 Q 1.0881241455078123 0.3294999999999999 1.1081241455078124 0.3294999999999999 Q 1.1506241455078123 0.3294999999999999 1.1743741455078123 0.31399999999999995 Q 1.1981241455078124 0.29849999999999993 1.1981241455078124 0.2679999999999999 Q 1.1981241455078124 0.24599999999999994 1.1861241455078124 0.23274999999999993 Q 1.1741241455078124 0.21949999999999992 1.1501241455078124 0.21099999999999994 Q 1.1261241455078124 0.20249999999999993 1.0911241455078124 0.19449999999999992 Q 1.0541241455078123 0.18599999999999992 1.0286241455078124 0.17549999999999993 Q 1.0031241455078124 0.16499999999999992 0.9903741455078123 0.14774999999999994 Q 0.9776241455078124 0.13049999999999992 0.9776241455078124 0.10199999999999992 Q 0.9776241455078124 0.06899999999999995 0.9938741455078124 0.0462499999999999 Q 1.0101241455078123 0.02349999999999991 1.0386241455078125 0.011749999999999927 Q 1.0671241455078124 -5.551115123125783e-17 1.1041241455078123 -5.551115123125783e-17 Q 1.1276241455078124 -5.551115123125783e-17 1.1478741455078123 0.004749999999999921 Q 1.1681241455078124 0.009499999999999897 1.1853741455078124 0.018499999999999905 Q 1.2026241455078124 0.027499999999999913 1.2176241455078123 0.040999999999999925 L 1.2006241455078124 0.06899999999999995" fill="#3682ae" fill-rule="nonzero"></path></g><g transform="matrix(1,0,0,1,0,0)"><g clip-path="url(#SvgjsClipPath33022)"><g clip-path="url(#SvgjsClipPath33017f3c99684-22f3-43e4-88da-661f85277591)"><path d=" M 0.6108510571077606 -0.829066941066855 C 0.5636082539580776 -0.8588960147279175 0.5123344949082511 -0.8896925178050146 0.45767473290230387 -0.920811497354123 C 0.41704269742885636 -0.9440298033389504 0.37447580312333995 -0.9674093475597829 0.3302965264577662 -0.9909501300166217 C 0.25370836435503774 -1.0317434037260749 0.17228305517213705 -1.072697915671534 0.08698802832509855 -1.11300747467297 C 0.05603028701199575 -1.1276801541494925 0.025233783934898835 -1.141869118917998 -0.005401480906192413 -1.155735607214492 C -0.03506931633124932 -1.1405792130299521 -0.06505962822831768 -1.1251003423734005 -0.09521117836139192 -1.109137757008832 C -0.17760391696032707 -1.0654421950512754 -0.25644941436713586 -1.021101680149696 -0.3302965264577665 -0.9774061181921392 C -0.37350837370730583 -0.9517692386672258 -0.4149466003607821 -0.9264548356143241 -0.4544499681821893 -0.9013016707974281 C -0.5076585860640849 -0.8676028794722275 -0.5574812009898598 -0.8343878028550444 -0.603272860015491 -0.8023013938899012 C -0.6576101455494267 -0.764249170192546 -0.7063040928231613 -0.7276480906192417 -0.7483872724206604 -0.6931431081140127 C -0.6290709777764099 -0.3966259920994497 -0.3390033912020767 -0.1875 -0.00008061911800316679 -0.1875 C 0.35174121184652996 -0.1875 0.6509993778731908 -0.4129110539360299 0.7609638548291084 -0.727164375911225 C 0.717107054635546 -0.7595732613483792 0.6668007250017536 -0.7937557673815971 0.6108510571077606 -0.829066941066855 Z M 0.6416475601848579 -1.481920558654112 C 0.6376166042847144 -1.4872414204423015 0.6334244101485649 -1.4927235204664968 0.6290709777764099 -1.4980443822546863 C 0.4813767535951483 -1.68201720953724 0.25435331729906085 -1.799882360057439 -0.00008061911800316679 -1.799882360057439 C -0.2677360908875379 -1.799882360057439 -0.5049175360519872 -1.669440627128792 -0.6514830925812083 -1.468699023301641 C -0.655514048481352 -1.4632169232774457 -0.6595450043814955 -1.4575735850172447 -0.6634147220456335 -1.4519302467570436 C -0.6698642514858631 -1.4425784290687105 -0.676313780926093 -1.4329041349083658 -0.6822795956583054 -1.423229840748021 C -0.6289097395404042 -1.41000830539555 -0.5698965451623019 -1.393078290614947 -0.5065299184120446 -1.3726010346422175 C -0.4526763475861262 -1.3551873051535972 -0.3955980120400928 -1.3351937638888849 -0.33593986471796755 -1.3129428873200923 C -0.2911156351083708 -1.2961741107754952 -0.24484026137472226 -1.2779541901068459 -0.1974362199890336 -1.2586056017861567 C -0.15454684921150552 -1.2410306340615307 -0.11085128725394888 -1.22248823692087 -0.06634953411636368 -1.202978410364175 C -0.07328277826461072 -1.1994311691720485 -0.08021602241285775 -1.1958839279799225 -0.08714926656110478 -1.1921754485517901 C -0.1301998755746384 -1.2108790839284564 -0.17244429340814327 -1.2286152898890883 -0.21388252006161945 -1.2453840664336857 C -0.2601578937952679 -1.264087701810352 -0.30546583811288197 -1.2818239077709839 -0.3493226383064443 -1.2979477313715582 C -0.40833583268454665 -1.3198761314683394 -0.464769215286557 -1.3393859580250345 -0.5179778331684525 -1.3564772110416432 C -0.581183221682704 -1.3766319905423612 -0.6397127013527891 -1.393239528850953 -0.6925988427626731 -1.4059773494954066 C -0.7645110960212349 -1.28537114896311 -0.8059493226747111 -1.1442876924580843 -0.8059493226747111 -0.9935299417927137 C -0.8059493226747111 -0.9132333002618533 -0.7941789314462918 -0.8356777087430903 -0.7724117695855164 -0.7624755495964828 C -0.7707993872254589 -0.7571546878082933 -0.7691870048654015 -0.7518338260201034 -0.7674133842693383 -0.7465129642319139 C -0.7632211901331889 -0.7334526671154489 -0.7587065195250282 -0.7205536082349893 -0.7538693724448557 -0.7078157875905358 C -0.7116249546113509 -0.7426432465677764 -0.6626085308656048 -0.7797280408490972 -0.607787530623652 -0.8182639792544701 C -0.5615121568900034 -0.8508341029276306 -0.5112058272562113 -0.8845328942528308 -0.4571910181942871 -0.9187154002860486 C -0.41672022095684536 -0.9445135180469675 -0.37431456488733483 -0.9704728740438922 -0.33013528822176097 -0.9967547065128285 C -0.25612693789512453 -1.0406115067063908 -0.17728144048831584 -1.0849520216079704 -0.09472746365337492 -1.1288088218015326 C -0.07150915766854793 -1.1410629277379694 -0.04845208991972638 -1.1531557954384 -0.025556260406910836 -1.1649261866668192 C -0.018623016258664027 -1.1684734278589457 -0.011851010346422663 -1.172020669051072 -0.004917766198175855 -1.1754066720071927 C 0.008142530918289648 -1.1820174396834282 0.02104158979874904 -1.1886282073596637 0.03394064867920865 -1.1949164985638876 C 0.04087389282745568 -1.198463739756014 0.04780713697570271 -1.2018497427121346 0.05474038112394952 -1.2052357456682552 C 0.0987584195535176 -1.2270029075290307 0.14229274327506825 -1.2478026399737716 0.18485963758058488 -1.2674737047664726 C 0.23129624955023909 -1.2889183901552363 0.27692667033986473 -1.3092344078919602 0.3209447087694328 -1.3279380432686265 C 0.37947418843951786 -1.3529299698495167 0.43574633280552244 -1.3753420846543152 0.4887937124514121 -1.3951743876830216 C 0.5513541480216408 -1.4183926936678488 0.6095611512197143 -1.4379025202245437 0.6624472926295981 -1.4532201526450894 C 0.6555140484813518 -1.4632169232774457 0.6485808043331049 -1.4725687409657788 0.6416475601848579 -1.481920558654112 Z M 0.673411492677989 -1.4370963290445151 C 0.6211703042121279 -1.4222624113319866 0.5631245392500603 -1.403236299483309 0.5007253419158375 -1.3803404699704933 C 0.44816167697796483 -1.3609918816498041 0.39253448555598314 -1.339063481553023 0.3344887205939153 -1.3145552696801497 C 0.291276873344376 -1.2963353490115006 0.2467751202067907 -1.2768255224548057 0.20130593765317095 -1.255864551774059 C 0.16002894923570032 -1.236999678161387 0.11794576963820114 -1.2170061368966747 0.07521763709667906 -1.196045166215928 C 0.06828439294843225 -1.1926591632598074 0.061351148800184996 -1.1892731603036868 0.05441790465193819 -1.1858871573475662 C 0.041518845771478796 -1.1794376279073364 0.028458548655013294 -1.1729880984671066 0.015398251538548013 -1.1663773307908711 C 0.03910027223139245 -1.155574368978486 0.06312476939624823 -1.14444893069409 0.08714926656110422 -1.133001015937682 C 0.1722830551721366 -1.092691456936246 0.25354712611903185 -1.0518981832267928 0.3299740499857544 -1.0111049095173397 C 0.3752819943033685 -0.9870804123524839 0.41881631802491937 -0.9630559151876281 0.46025454467839544 -0.9393538944947837 C 0.5155592596283656 -0.9077512002376577 0.5674779716222151 -0.8766322206885492 0.6152044894799154 -0.8463194323194694 C 0.6716378720819256 -0.8105245439261943 0.7224279164237348 -0.7758583231849594 0.7664459548533031 -0.7432881995117988 C 0.770638148989452 -0.7558647819202471 0.7743466284175846 -0.768602602564701 0.7778938696097106 -0.7815016614451604 C 0.7793450137337627 -0.7869837614693556 0.780796157857814 -0.7926270997295566 0.7822473019818659 -0.7982704379897576 C 0.7978874108744229 -0.8608308735599863 0.806110560910716 -0.9264548356143241 0.806110560910716 -0.9940136565007308 C 0.8061105609107169 -1.1575092278105554 0.7572553754009759 -1.3098793608359833 0.673411492677989 -1.4370963290445151 Z" fill="#102036" transform="matrix(1,0,0,1,0,0)" fill-rule="nonzero"></path></g><g clip-path="url(#SvgjsClipPath33017f3c99684-22f3-43e4-88da-661f85277591)"><path d=" M 0.4654141682305797 -1.422101173095981 C 0.4608994976224188 -1.4270995584121589 0.4562235887782522 -1.4319367054923313 0.4515476799340856 -1.4367738525725036 C 0.3367460558979958 -1.5538328119126736 0.17679772578029818 -1.6263900181152584 -0.00008061911800316679 -1.6263900181152584 C -0.187600687592683 -1.6263900181152584 -0.35593340598267975 -1.544803470696352 -0.47170245943480393 -1.4153291671837396 C -0.4763783682789704 -1.4103307818675614 -0.48073180065112564 -1.4051711583153779 -0.48508523302328066 -1.3998502965271882 C -0.4925021918795449 -1.3909821935468722 -0.4995966742637976 -1.3819528523305507 -0.5065299184120446 -1.3727622728782232 C -0.4526763475861262 -1.3553485433896029 -0.3955980120400928 -1.3353550021248908 -0.33593986471796755 -1.313104125556098 C -0.2911156351083708 -1.2963353490115006 -0.24484026137472226 -1.2781154283428515 -0.1974362199890336 -1.2587668400221623 C -0.15454684921150552 -1.2411918722975361 -0.11085128725394888 -1.2226494751568757 -0.06634953411636368 -1.2031396486001806 C -0.07328277826461072 -1.1995924074080544 -0.08021602241285775 -1.196045166215928 -0.08714926656110478 -1.192336686787796 C -0.1301998755746384 -1.2110403221644621 -0.17244429340814327 -1.2287765281250942 -0.21388252006161945 -1.2455453046696914 C -0.2601578937952679 -1.2642489400463577 -0.30546583811288197 -1.2819851460069893 -0.3493226383064443 -1.2981089696075638 C -0.40833583268454665 -1.320037369704345 -0.464769215286557 -1.33954719626104 -0.5179778331684525 -1.3566384492776489 C -0.59005132466302 -1.25392969294199 -0.632295742496525 -1.1288088218015329 -0.632295742496525 -0.9936911800287195 C -0.632295742496525 -0.9527366680832606 -0.628426024832387 -0.9127495855538358 -0.6210090659761228 -0.8740524089124575 C -0.6198803983240826 -0.8682478324162504 -0.6187517306720425 -0.8624432559200437 -0.6174618247839965 -0.856638679423837 C -0.6147207747718988 -0.8437396205433777 -0.6113347718157781 -0.8310017998989238 -0.6077875306236518 -0.8185864557264816 C -0.5615121568900033 -0.8511565793996417 -0.5112058272562113 -0.8848553707248422 -0.457191018194287 -0.91903787675806 C -0.41672022095684513 -0.9448359945189789 -0.3743145648873346 -0.9707953505159037 -0.33013528822176075 -0.9970771829848399 C -0.2561269378951243 -1.0409339831784021 -0.17728144048831562 -1.0852744980799818 -0.09472746365337459 -1.1291312982735442 C -0.07150915766854749 -1.1413854042099807 -0.04845208991972605 -1.1534782719104113 -0.02555626040691039 -1.1652486631388306 C -0.018623016258663583 -1.168795904330957 -0.01185101034642222 -1.1723431455230835 -0.004917766198175411 -1.175729148479204 C 0.00814253091828987 -1.1823399161554395 0.021041589798749483 -1.188950683831675 0.033940648679208874 -1.195238975035899 C 0.040873892827455904 -1.1987862162280254 0.047807136975702935 -1.202172219184146 0.054740381123949744 -1.2055582221402665 C 0.09875841955351805 -1.227325384001042 0.1422927432750687 -1.2481251164457832 0.18485963758058532 -1.267796181238484 C 0.2312962495502393 -1.2892408666272477 0.27692667033986496 -1.3095568843639716 0.32094470876943326 -1.3282605197406379 C 0.3794741884395181 -1.353252446321528 0.4357463328055229 -1.3756645611263265 0.48879371245141257 -1.395496864155033 C 0.48105427712313653 -1.4046874436073606 0.47331484179486116 -1.4133943083516707 0.4654141682305797 -1.422101173095981 Z M 0.45783597113830954 -0.920811497354123 C 0.41720393566486225 -0.9440298033389504 0.37463704135934583 -0.9674093475597829 0.33045776469377186 -0.9909501300166217 C 0.25386960259104363 -1.0317434037260749 0.17244429340814293 -1.072697915671534 0.08714926656110444 -1.11300747467297 C 0.05619152524800164 -1.1276801541494925 0.025395022170904502 -1.141869118917998 -0.0052402426701867455 -1.155735607214492 C -0.034908078095243655 -1.1405792130299521 -0.06489838999231201 -1.1251003423734005 -0.09504994012538626 -1.109137757008832 C -0.1774426787243214 -1.0654421950512754 -0.25628817613113 -1.021101680149696 -0.33013528822176075 -0.9774061181921392 C -0.37334713547130016 -0.9517692386672258 -0.41478536212477635 -0.9264548356143241 -0.45428872994618363 -0.9013016707974281 C -0.507497347828079 -0.8676028794722275 -0.5573199627538539 -0.8343878028550444 -0.6031116217794852 -0.8023013938899012 C -0.5220087890685959 -0.5465775515847915 -0.2827312468360721 -0.3613148184141919 -0.00008061911800316679 -0.3613148184141919 C 0.29240554099641636 -0.3613148184141919 0.5384550891411817 -0.559637848701257 0.6108510571077606 -0.8292281793028606 C 0.5636082539580776 -0.8588960147279175 0.5123344949082511 -0.8896925178050146 0.45783597113830954 -0.920811497354123 Z M 0.5007253419158375 -1.3801792317344876 C 0.44816167697796483 -1.3608306434137982 0.39253448555598336 -1.338902243317017 0.33448872059391555 -1.314394031444144 C 0.29127687334437624 -1.296174110775495 0.24677512020679093 -1.2766642842187998 0.20130593765317095 -1.2557033135380533 C 0.16002894923570055 -1.2368384399253811 0.11794576963820136 -1.216844898660669 0.07521763709667928 -1.1958839279799223 C 0.06828439294843247 -1.1924979250238015 0.06135114880018522 -1.189111922067681 0.05441790465193841 -1.1857259191115603 C 0.041518845771478796 -1.1792763896713305 0.028458548655013516 -1.1728268602311007 0.015398251538548235 -1.1662160925548652 C 0.039100272231392674 -1.1554131307424806 0.06312476939624845 -1.144287692458084 0.08714926656110444 -1.132839777701676 C 0.17228305517213682 -1.0925302187002404 0.2535471261190321 -1.051736944990787 0.32997404998575464 -1.0109436712813338 C 0.3752819943033687 -0.986919174116478 0.4188163180249196 -0.9628946769516225 0.46025454467839566 -0.939192656258778 C 0.5155592596283656 -0.907589962001652 0.5674779716222151 -0.8764709824525435 0.6152044894799156 -0.8461581940834636 C 0.6181067777280187 -0.8585735382559058 0.6208478277401168 -0.8709888824283482 0.6229439248081912 -0.8837267030728018 C 0.6240725924602317 -0.8896925178050146 0.6250400218762657 -0.8956583325372267 0.6258462130562947 -0.9017853855054452 C 0.63019964542845 -0.9317756974025135 0.6324569807325302 -0.9625722004796106 0.6324569807325302 -0.9936911800287193 C 0.6326182189685359 -1.1392893071419063 0.5834405569867842 -1.2732782812626793 0.5007253419158375 -1.3801792317344876 Z" fill="#a5b2ba" transform="matrix(1,0,0,1,0,0)" fill-rule="nonzero"></path></g><g clip-path="url(#SvgjsClipPath33017f3c99684-22f3-43e4-88da-661f85277591)"><path d=" M 0.3302965264577662 -0.9909501300166218 C 0.25370836435503774 -1.0317434037260749 0.17228305517213705 -1.072697915671534 0.08698802832509855 -1.11300747467297 C 0.05603028701199575 -1.1276801541494925 0.025233783934898835 -1.141869118917998 -0.005401480906192413 -1.155735607214492 C -0.03506931633124932 -1.1405792130299521 -0.06505962822831768 -1.1251003423734005 -0.09521117836139192 -1.109137757008832 C -0.17760391696032707 -1.0654421950512756 -0.25644941436713586 -1.021101680149696 -0.3302965264577665 -0.9774061181921393 C -0.37350837370730583 -0.9517692386672258 -0.4149466003607821 -0.9264548356143244 -0.4544499681821893 -0.9013016707974284 C -0.41156059740466133 -0.6895958669218865 -0.2245242436379986 -0.5302924897482115 -0.00024185735400883424 -0.5302924897482115 C 0.23097377307822797 -0.5302924897482115 0.4226860356890574 -0.6995926375542425 0.4575134946662982 -0.9209727355901292 C 0.41704269742885636 -0.9440298033389504 0.37463704135934583 -0.9675705857957887 0.3302965264577662 -0.9909501300166218 Z M 0.2928892557044336 -1.3529299698495167 C 0.28756839391624434 -1.357283402221672 0.28208629389204876 -1.361636834593827 0.27644295563184773 -1.3658290287299764 C 0.1992098405850966 -1.423391078984027 0.1035955666336903 -1.457251108545233 -0.00008061911800316679 -1.457251108545233 C -0.11165747843397789 -1.457251108545233 -0.21404375829762512 -1.4179089789598316 -0.29401792335647414 -1.3521237786694882 C -0.2995000233806694 -1.3476091080613273 -0.30482088516885897 -1.3430944374531664 -0.31014174695704855 -1.3382572903729941 C -0.31917108817337025 -1.330195378572707 -0.3278779529176804 -1.3216497520644026 -0.33610110295397344 -1.3129428873200923 C -0.29127687334437646 -1.2961741107754952 -0.24500149961072804 -1.2779541901068459 -0.19759745822503927 -1.2586056017861567 C -0.1547080874475113 -1.2410306340615307 -0.11101252548995477 -1.22248823692087 -0.06651077235236968 -1.202978410364175 C -0.0734440165006165 -1.1994311691720485 -0.08037726064886352 -1.1958839279799225 -0.08731050479711056 -1.1921754485517901 C -0.13036111381064408 -1.2108790839284564 -0.17260553164414905 -1.2286152898890883 -0.21404375829762523 -1.2453840664336857 C -0.26031913203127377 -1.264087701810352 -0.30562707634888786 -1.2818239077709839 -0.34948387654245017 -1.2979477313715582 C -0.42058993862098304 -1.2166836604246631 -0.4634793093985109 -1.1102664246608722 -0.4634793093985109 -0.9936911800287195 C -0.4634793093985109 -0.9883703182405298 -0.4634793093985109 -0.9830494564523403 -0.46315683292649945 -0.9777285946641507 C -0.4629955946904937 -0.9712790652239208 -0.4626731182184822 -0.9648295357836912 -0.462189403510465 -0.9585412445794673 L -0.462189403510465 -0.9585412445794673 C -0.46122197409443044 -0.9451584709909908 -0.459609591734373 -0.9319369356385196 -0.4575134946662984 -0.91903787675806 C -0.4170426974288567 -0.9448359945189789 -0.37463704135934606 -0.970795350515904 -0.3304577646937722 -0.99707718298484 C -0.25644941436713586 -1.0409339831784026 -0.17760391696032707 -1.0852744980799818 -0.09504994012538626 -1.1291312982735442 C -0.07183163414055904 -1.141385404209981 -0.048774566391737606 -1.1534782719104117 -0.02587873687892217 -1.165248663138831 C -0.01894549273067514 -1.1687959043309573 -0.012173486818433776 -1.1723431455230835 -0.0052402426701869675 -1.175729148479204 C 0.007820054446278313 -1.1823399161554398 0.020719113326737926 -1.1889506838316752 0.03361817220719754 -1.1952389750358994 C 0.04055141635544435 -1.1987862162280256 0.0474846605036916 -1.2021722191841464 0.05441790465193841 -1.205558222140267 C 0.09843594308150627 -1.2273253840010423 0.14197026680305735 -1.2481251164457832 0.18453716110857377 -1.267796181238484 C 0.23097377307822797 -1.2892408666272481 0.2766041938678536 -1.3095568843639716 0.3206222322974215 -1.3282605197406379 C 0.31175412931710555 -1.3369673844849481 0.3024023116287726 -1.3450292962852353 0.2928892557044336 -1.3529299698495167 Z M 0.4634793093985108 -0.997722135928863 C 0.4625118799824761 -1.1205856717652398 0.4134954562367301 -1.2320012928452089 0.3346499588299212 -1.314394031444144 C 0.29143811158038213 -1.296174110775495 0.2469363584427966 -1.2766642842187998 0.20146717588917684 -1.2557033135380533 C 0.16019018747170644 -1.2368384399253811 0.11810700787420703 -1.216844898660669 0.07537887533268495 -1.1958839279799223 C 0.06844563118443814 -1.1924979250238015 0.06151238703619111 -1.189111922067681 0.05457914288794408 -1.1857259191115603 C 0.041680084007484686 -1.1792763896713305 0.028619786891019405 -1.1728268602311007 0.015559489774553903 -1.1662160925548652 C 0.03926151046739834 -1.1554131307424806 0.06328600763225412 -1.144287692458084 0.08731050479711011 -1.132839777701676 C 0.1724442934081427 -1.0925302187002404 0.25370836435503774 -1.051736944990787 0.3301352882217605 -1.0109436712813338 C 0.3754432325393744 -0.986919174116478 0.4189775562609255 -0.9628946769516225 0.46041578291440155 -0.939192656258778 C 0.461866927038453 -0.9519304769032315 0.46283435645448767 -0.9648295357836912 0.4633180711625047 -0.9780510711361622 C 0.46347930939851056 -0.983210694688346 0.46364054763451623 -0.9885315564765356 0.46364054763451623 -0.9936911800287194 C 0.4634793093985108 -0.9949810859167654 0.4634793093985108 -0.996432230040817 0.4634793093985108 -0.997722135928863 Z" fill="#102036" transform="matrix(1,0,0,1,0,0)" fill-rule="nonzero"></path></g><g clip-path="url(#SvgjsClipPath33017f3c99684-22f3-43e4-88da-661f85277591)"><path d=" M 0.18453716110857377 -1.267796181238484 C 0.14197026680305735 -1.2481251164457832 0.09859718131751216 -1.2273253840010423 0.05441790465193841 -1.205558222140267 C 0.0474846605036916 -1.2021722191841462 0.04055141635544435 -1.19862497799202 0.03361817220719754 -1.1952389750358994 C 0.020719113326737926 -1.1887894455956696 0.007820054446278313 -1.1823399161554398 -0.0052402426701869675 -1.175729148479204 C -0.012173486818433776 -1.172181907287078 -0.01894549273067514 -1.1687959043309573 -0.02587873687892217 -1.165248663138831 C -0.04877456639173783 -1.1534782719104115 -0.07199287237656493 -1.1413854042099807 -0.09504994012538626 -1.1291312982735442 C -0.17760391696032707 -1.0852744980799818 -0.25644941436713586 -1.041095221414408 -0.3304577646937722 -0.99707718298484 C -0.3302965264577665 -1.011588624225357 -0.3291678588057263 -1.026100065465874 -0.3272329999736573 -1.0401277919983736 C -0.32626557055762284 -1.0475447508546378 -0.32497566466957695 -1.054961709710902 -0.3233632823095196 -1.0622174303311605 L -0.3233632823095196 -1.0622174303311605 C -0.30804564988897387 -1.1350971130057568 -0.26870352030357236 -1.1989474544640313 -0.21404375829762512 -1.2455453046696914 C -0.17260553164414905 -1.2287765281250942 -0.1301998755746382 -1.2110403221644621 -0.08731050479711056 -1.192336686787796 C -0.08037726064886352 -1.1958839279799223 -0.0734440165006165 -1.1995924074080544 -0.06651077235236968 -1.2031396486001806 C -0.111012525489955 -1.2226494751568757 -0.15470808744751152 -1.2411918722975361 -0.19759745822503927 -1.2587668400221623 C -0.18679449641265433 -1.2668287518224495 -0.1755078198922524 -1.2742457106787137 -0.1638986668998389 -1.2808564783549494 C -0.15696542275159187 -1.2848874342550929 -0.14987094036733917 -1.288595913683225 -0.14277645798308636 -1.2919819166393456 C -0.09956461073354705 -1.3126204108480808 -0.05119313993182384 -1.3242295638404942 -0.00024185735400883424 -1.3242295638404942 C 0.04490484872759937 -1.3242295638404942 0.08811669597713867 -1.3152002226241726 0.12729758732653473 -1.2987539225515867 C 0.1345533079467931 -1.2956903960674775 0.1416477903310458 -1.2924656313473628 0.1487422727152985 -1.2889183901552363 C 0.16115761688774088 -1.2824688607150068 0.17308924635216583 -1.2755356165667597 0.18453716110857377 -1.267796181238484 Z" fill="#a5b2ba" transform="matrix(1,0,0,1,0,0)" fill-rule="nonzero"></path></g><g clip-path="url(#SvgjsClipPath33017f3c99684-22f3-43e4-88da-661f85277591)"><path d=" M 0.3302965264577662 -0.9909501300166218 C 0.3288453823337145 -0.8097183527461657 0.18147363462446475 -0.6631527962169446 -0.00008061911800316679 -0.6631527962169446 C -0.17712020225230973 -0.6631527962169446 -0.32158966171345627 -0.8023013938899012 -0.33013528822176075 -0.9772448799561336 C -0.25628817613113 -1.021101680149696 -0.17760391696032707 -1.0652809568152697 -0.09504994012538626 -1.1089765187728262 C -0.06489838999231201 -1.124939104137395 -0.034908078095243766 -1.1405792130299521 -0.0052402426701867455 -1.155574368978486 C 0.025233783934898835 -1.1417078806819922 0.05603028701199597 -1.1275189159134869 0.08714926656110444 -1.112846236436964 C 0.17228305517213705 -1.072697915671534 0.25386960259104363 -1.0317434037260749 0.3302965264577662 -0.9909501300166218 Z" fill="#a5b2ba" transform="matrix(1,0,0,1,0,0)" fill-rule="nonzero"></path></g><g clip-path="url(#SvgjsClipPath33017f3c99684-22f3-43e4-88da-661f85277591)"><path d=" M 0.32997404998575464 -1.0111049095173397 C 0.2535471261190323 -1.0517369449907872 0.17228305517213727 -1.0926914569362463 0.08714926656110444 -1.133001015937682 C 0.06312476939624867 -1.14444893069409 0.03926151046739834 -1.1554131307424806 0.015398251538548458 -1.1663773307908711 C 0.028458548655013738 -1.1729880984671066 0.04135760753547313 -1.1794376279073364 0.05441790465193863 -1.1858871573475662 C 0.06135114880018544 -1.1892731603036868 0.06828439294843269 -1.192820401495813 0.0752176370966795 -1.196045166215928 C 0.11794576963820158 -1.2170061368966747 0.16002894923570077 -1.236999678161387 0.20130593765317117 -1.255864551774059 C 0.25902922614322743 -1.2113627986364737 0.3017573586847495 -1.148157410122222 0.32029975582541015 -1.0754389656836316 C 0.32223461465747927 -1.0680220068273674 0.3238469970175366 -1.0606050479711033 0.3251369029055824 -1.0530268508788332 C 0.3275554764456685 -1.039321600818345 0.3291678588057261 -1.025293874285845 0.32997404998575464 -1.0111049095173397 Z" fill="#a5b2ba" transform="matrix(1,0,0,1,0,0)" fill-rule="nonzero"></path></g><g clip-path="url(#SvgjsClipPath33017f3c99684-22f3-43e4-88da-661f85277591)"><path d=" M 0.089529787877493 -1.0832727253799708 C 0.13902173180340616 -1.0337807814540576 0.13902173180340616 -0.953538502205456 0.089529787877493 -0.9040465582795428 C 0.04003784395157983 -0.8545546143536297 -0.04020443529702167 -0.8545546143536297 -0.08969637922293483 -0.9040465582795428 C -0.139188323148848 -0.953538502205456 -0.139188323148848 -1.0337807814540576 -0.08969637922293483 -1.0832727253799708 C -0.04020443529702167 -1.132764669305884 0.04003784395157983 -1.132764669305884 0.089529787877493 -1.0832727253799708 Z" fill="#3682ae" transform="matrix(1,0,0,1,0,0)" fill-rule="nonzero"></path></g><g clip-path="url(#SvgjsClipPath33017f3c99684-22f3-43e4-88da-661f85277591)"><path d=" M 0.05441790465193863 -1.205558222140267 C 0.0474846605036916 -1.2021722191841462 0.04055141635544457 -1.19862497799202 0.03361817220719754 -1.1952389750358994 C 0.020719113326738148 -1.1887894455956696 0.007820054446278535 -1.1823399161554398 -0.0052402426701867455 -1.175729148479204 C -0.018784254494669028 -1.1818562014474225 -0.032328266319151755 -1.1879832544156408 -0.04571103990762837 -1.1939490691478531 C -0.0526442840558754 -1.1970125956319624 -0.05957752820412243 -1.2000761221160716 -0.06651077235236946 -1.2031396486001806 C -0.11101252548995477 -1.2226494751568757 -0.1547080874475113 -1.2411918722975361 -0.19759745822503916 -1.2587668400221623 C -0.2450014996107277 -1.2781154283428515 -0.29127687334437635 -1.2963353490115006 -0.3361011029539731 -1.313104125556098 C -0.3955980120400925 -1.3353550021248908 -0.45267634758612585 -1.3553485433896029 -0.5066911566480502 -1.3727622728782232 C -0.5700577833983076 -1.3932395288509527 -0.6290709777764097 -1.4103307818675614 -0.682440833894311 -1.423391078984027 C -0.8456139287321238 -1.463700637985463 -0.9567070733400813 -1.4682153085936236 -0.9821827146289889 -1.427583273120176 C -0.9875035764171785 -1.4190376466118717 -0.9887934823052243 -1.4088796377435098 -0.986536147001144 -1.3972704847510964 C -0.9799253793249085 -1.3643778846059247 -0.9438080144596218 -1.3195536549963278 -0.8838273906654851 -1.2668287518224495 C -0.9228470437788752 -1.2990763990235983 -0.9549334527440182 -1.3292279491566723 -0.9791191881448797 -1.3566384492776489 C -1.0094319765139597 -1.3909821935468722 -1.0276518971826087 -1.4209725054439406 -1.031844091318758 -1.445319479080808 L -1.031844091318758 -1.445319479080808 C -1.0341014266228383 -1.4583797761972732 -1.0323278060267753 -1.4696664527176753 -1.026200753058557 -1.47934074687802 C -0.9947592970374369 -1.5294858382758063 -0.8541595552404282 -1.5217464029475307 -0.6514830925812082 -1.4688602615376465 C -0.5958559011592266 -1.4543488202971298 -0.535714039129084 -1.436451376100492 -0.4717024594348037 -1.4153291671837396 C -0.41510783859678757 -1.3966255318070733 -0.3556109295106682 -1.3755033228903208 -0.2940179233564739 -1.352123778669488 C -0.24484026137472215 -1.3334201432928217 -0.19437269350492425 -1.3134266020281096 -0.14277645798308625 -1.2919819166393456 C -0.09827470484550083 -1.273439519498685 -0.052966760527886736 -1.2539296929419899 -0.0070138632662497535 -1.2334524369692605 L -0.0070138632662497535 -1.2334524369692605 C -0.00008061911800294475 -1.2303889104851513 0.006852625030244308 -1.2271641457650366 0.013947107414496784 -1.2241006192809274 C 0.02749111923897929 -1.2179735663127091 0.040873892827455904 -1.211846513344491 0.05441790465193863 -1.205558222140267 Z" fill="#102036" transform="matrix(1,0,0,1,0,0)" fill-rule="nonzero"></path></g><g clip-path="url(#SvgjsClipPath33017f3c99684-22f3-43e4-88da-661f85277591)"><path d=" M 1.031682853082752 -0.5222305779479242 C 1.0307154236667175 -0.517232192631746 1.0287805648346486 -0.5123950455515738 1.0260395148225512 -0.508041613179419 C 1.0126567412340743 -0.4865969277906552 0.9792804263808854 -0.47579396597826995 0.9296190496911163 -0.47450406009022417 C 0.8818925318334163 -0.4732141542021784 0.819009619791176 -0.48095358953045375 0.7443563165205163 -0.49659369842301126 C 0.8569006052525256 -0.4762776806862876 0.9318763849951965 -0.4798249218784141 0.9521924027319206 -0.5122338073155683 C 0.9542884997999952 -0.5154585720356835 0.9557396439240466 -0.5190058132278099 0.9565458351040756 -0.5225530544199359 L 0.9565458351040756 -0.5225530544199359 C 0.9675100351524661 -0.5675385222655385 0.895920258365916 -0.6470289726163703 0.7664459548533034 -0.7429657230397881 C 0.7224279164237353 -0.775697084948954 0.671637872081926 -0.8102020674541832 0.6152044894799158 -0.8459969558474583 C 0.5674779716222154 -0.8763097442165381 0.515559259628366 -0.907428723765647 0.46025454467839566 -0.9390314180227726 C 0.4186550797889139 -0.9627334387156171 0.37512075606736306 -0.9867579358804729 0.32997404998575464 -1.0107824330453288 C 0.2535471261190323 -1.051414468518776 0.17228305517213727 -1.0923689804642351 0.08714926656110444 -1.132678539465671 C 0.06312476939624867 -1.144126454222079 0.03926151046739834 -1.1550906542704695 0.015398251538548458 -1.16605485431886 C 0.028458548655013738 -1.1726656219950957 0.04135760753547313 -1.1791151514353253 0.05441790465193863 -1.185564680875555 C 0.06135114880018544 -1.188950683831676 0.06828439294843269 -1.192497925023802 0.0752176370966795 -1.195722689743917 C 0.08843917244915045 -1.1895956367756986 0.1016607078016214 -1.1834685838074805 0.11504348139009823 -1.1771802926032564 C 0.18614954346863133 -1.143481501278056 0.2548370320070783 -1.1092989952448382 0.32029975582541015 -1.0751164892116205 C 0.36996113251517926 -1.0491571332146958 0.41768765037287947 -1.0233590154537766 0.4634793093985108 -0.9975608976928576 C 0.5210413596525614 -0.965152012255703 0.5753786451864968 -0.9330656032905602 0.6260074512923006 -0.9016241472694402 C 0.6832470250743399 -0.8659904971121709 0.7356494517762064 -0.8311630381349299 0.7824085402178724 -0.7979479615177469 C 0.9483226850677824 -0.6794378580535245 1.0429695296031545 -0.578986437021946 1.031682853082752 -0.5222305779479242 Z" fill="#102036" transform="matrix(1,0,0,1,0,0)" fill-rule="nonzero"></path></g><g clip-path="url(#SvgjsClipPath33017f3c99684-22f3-43e4-88da-661f85277591)"><path d=" M 1.0042723529617756 -1.4857902763182498 L 1.0042723529617756 -1.4857902763182498 C 1.0004026352976378 -1.461120826209371 0.9833113822810291 -1.430324323132274 0.9547722145080124 -1.3951743876830216 C 0.9325213379392194 -1.3677638875620453 0.903175978986174 -1.3374510991929653 0.867542328828905 -1.3050422137558109 C 0.9225245673068634 -1.358573308109718 0.955578405688041 -1.4037200141913262 0.9617054586562594 -1.436612614336498 L 0.9617054586562594 -1.436612614336498 C 0.9641240321963456 -1.4495116732169575 0.9621891733642767 -1.460475873265348 0.9560621203960586 -1.469343976245664 C 0.9286516202750819 -1.5083636293590539 0.8201382874432166 -1.4996567646147438 0.6621248161575874 -1.4537038673531066 C 0.6093999129837091 -1.4383862349325611 0.5510316715496297 -1.418876408375866 0.48847123597940123 -1.395658102391039 C 0.43542385633351155 -1.3758257993623324 0.37915171196750674 -1.353413684557534 0.3206222322974217 -1.3284217579766437 C 0.27644295563184795 -1.3095568843639718 0.2309737730782282 -1.2894021048632538 0.184537161108574 -1.2679574194744898 C 0.14197026680305758 -1.248286354681789 0.09859718131751238 -1.227486622237048 0.05441790465193863 -1.2057194603762726 C 0.0474846605036916 -1.2023334574201519 0.04055141635544457 -1.1987862162280256 0.03361817220719754 -1.195400213271905 C 0.020719113326738148 -1.1889506838316755 0.007820054446278535 -1.1825011543914457 -0.0052402426701867455 -1.17589038671521 C -0.012173486818433554 -1.1723431455230835 -0.01894549273067514 -1.168957142566963 -0.02587873687892195 -1.1654099013748365 C -0.048774566391737606 -1.1536395101464172 -0.07199287237656471 -1.1415466424459866 -0.09504994012538603 -1.12929253650955 C -0.17760391696032685 -1.0854357363159877 -0.25644941436713564 -1.041256459650414 -0.3304577646937721 -0.9972384212208458 C -0.37463704135934583 -0.9709565887519097 -0.41704269742885647 -0.9449972327549847 -0.4575134946662982 -0.9191991149940657 C -0.5113670654922167 -0.885016608960848 -0.5618346333620146 -0.8513178176356474 -0.6081100070956631 -0.8187476939624874 C -0.662931007337616 -0.7802117555571149 -0.7119474310833622 -0.7431269612757936 -0.7541918489168671 -0.7082995022985528 C -0.8736693817971233 -0.609944178335049 -0.9394545820874668 -0.5298087750401943 -0.9292965732191049 -0.48498454543059744 C -0.9283291438030705 -0.48030863658643086 -0.9263942849710015 -0.47595520421427584 -0.9236532349589038 -0.47208548655013827 C -0.9014023583901112 -0.4404827922930121 -0.8261041021754287 -0.4401603158210008 -0.7143660046234483 -0.46563595710990824 C -0.7890193078941079 -0.4462873687892188 -0.8520634581723537 -0.43580688344884555 -0.9001124525020654 -0.43516193050482266 C -0.9491288762478115 -0.43451697756079977 -0.9826664293370063 -0.4438687952491325 -0.9971778705775232 -0.4645072894578681 C -1.0007251117696496 -0.4696669130100519 -1.0031436853097357 -0.47531025127025295 -1.0042723529617759 -0.48159854247447687 C -1.0147528383021494 -0.538193163312493 -0.9272004761510304 -0.6402569667041289 -0.772573007821522 -0.7626367878324887 C -0.7275875399759194 -0.7982704379897578 -0.676958733870116 -0.835516470507085 -0.6213315424481343 -0.8740524089124575 C -0.572315118702388 -0.9079124384736638 -0.5194289772925041 -0.9425786592148987 -0.46331807116250523 -0.9777285946641509 C -0.41865507978891425 -1.0056228094931448 -0.3718959913472485 -1.0338395007941497 -0.3233632823095196 -1.062056192095155 L -0.3233632823095196 -1.062056192095155 C -0.26031913203127366 -1.0988185099044645 -0.1940502170329128 -1.1355808277137742 -0.12536272849446606 -1.1720206690510722 C -0.11262490785001233 -1.1787926749633133 -0.09988708720555861 -1.185403442639549 -0.08731050479711056 -1.1920142103157845 C -0.08037726064886352 -1.1955614515079107 -0.0734440165006165 -1.199269930936043 -0.06651077235236968 -1.2028171721281693 C -0.05361171347190996 -1.2094279398044048 -0.04071265459145046 -1.2160387074806405 -0.027813595710991068 -1.2226494751568757 C -0.02088035156274426 -1.2261967163490022 -0.013785869178491339 -1.2297439575411286 -0.006852625030244308 -1.2332911987332549 L -0.006852625030244308 -1.2332911987332549 C 0.03861655752337545 -1.2560257900100649 0.08344078713297232 -1.2777929518708402 0.12745882556254018 -1.2985926843155813 C 0.17824886990434963 -1.3224559432444314 0.2280714848301244 -1.3448680580492298 0.2764429556318475 -1.3656677904939707 C 0.33706853237000733 -1.3917883847269013 0.39575925027609804 -1.4156516436557514 0.4515476799340854 -1.4366126143364981 C 0.5145918302123316 -1.4604758732653482 0.5740887392984508 -1.4809531292380775 0.6290709777764094 -1.497721905782675 C 0.8254591492314054 -1.5578637678128173 0.9633178410163166 -1.5709240649292826 0.9971778705775227 -1.5227138323635654 C 1.0042723529617756 -1.512717061731209 1.0065296882658563 -1.5003017175587667 1.0042723529617756 -1.4857902763182498 Z" fill="#102036" transform="matrix(1,0,0,1,0,0)" fill-rule="nonzero"></path></g></g></g></g><defs><clipPath id="SvgjsClipPath33022"><path d=" M -1.0326502824987869 -1.799882360057439 h 2.0653005649975738 v 1.612382360057439 h -2.0653005649975738 Z"></path></clipPath><clipPath id="SvgjsClipPath33017f3c99684-22f3-43e4-88da-661f85277591"><path d=" M -1.0326502824987869 -1.799882360057439 L 1.0326502824987869 -1.799882360057439 L 1.0326502824987869 -0.1875 L -1.0326502824987869 -0.1875 Z"></path></clipPath></defs></svg>